<svg width="20" height="20" viewBox="0 0 24 24" fill="none" xmlns="http://www.w3.org/2000/svg">
<g clip-path="url(#clip0_1335_4034)">
<path d="M19.5492 11.4968C19.0942 10.4727 18.4328 9.55357 17.6063 8.79683L16.9242 8.17105C16.9011 8.15038 16.8732 8.13572 16.843 8.12834C16.8129 8.12096 16.7814 8.1211 16.7513 8.12873C16.7212 8.13637 16.6935 8.15127 16.6705 8.17214C16.6475 8.193 16.63 8.21918 16.6195 8.24839L16.3148 9.12261C16.125 9.67105 15.7758 10.2312 15.2813 10.782C15.2484 10.8171 15.2109 10.8265 15.1852 10.8289C15.1594 10.8312 15.1195 10.8265 15.0844 10.7937C15.0516 10.7656 15.0352 10.7234 15.0375 10.6812C15.1242 9.27027 14.7023 7.67886 13.7789 5.94683C13.0148 4.50777 11.9531 3.38511 10.6266 2.6023L9.65859 2.03277C9.53203 1.95777 9.37031 2.05621 9.37734 2.20387L9.42891 3.32886C9.46406 4.09761 9.375 4.7773 9.16406 5.34214C8.90625 6.03355 8.53594 6.67574 8.0625 7.2523C7.73302 7.65299 7.35959 8.01542 6.94922 8.33277C5.96087 9.09253 5.15722 10.066 4.59844 11.1804C4.04103 12.3045 3.75068 13.5421 3.75 14.7968C3.75 15.9031 3.96797 16.9742 4.39922 17.9843C4.81562 18.9569 5.41654 19.8396 6.16875 20.5835C6.92813 21.3335 7.80938 21.9242 8.79141 22.3343C9.80859 22.7609 10.8867 22.9765 12 22.9765C13.1133 22.9765 14.1914 22.7609 15.2086 22.3367C16.1882 21.9289 17.079 21.3342 17.8313 20.5859C18.5906 19.8359 19.1859 18.9593 19.6008 17.9867C20.0314 16.9793 20.2523 15.8947 20.25 14.7992C20.25 13.6554 20.0156 12.5445 19.5492 11.4968V11.4968Z" fill="#04B90B"/>
<path d="M2.81134 6.56699C2.76399 6.47767 2.63601 6.47767 2.58866 6.56699C2.22251 7.25761 1.65761 7.82251 0.966993 8.18866C0.877669 8.23601 0.877669 8.36399 0.966993 8.41134C1.65761 8.77749 2.22251 9.34239 2.58866 10.033C2.63601 10.1223 2.76399 10.1223 2.81134 10.033C3.17749 9.34239 3.74239 8.77749 4.43301 8.41134C4.52233 8.36399 4.52233 8.23601 4.43301 8.18866C3.74239 7.82251 3.17749 7.25761 2.81134 6.56699Z" fill="#04B90B"/>
<path d="M20.8484 0.589324C20.7853 0.470225 20.6147 0.470225 20.5515 0.589324C20.0633 1.51014 19.3101 2.26334 18.3893 2.75154C18.2702 2.81468 18.2702 2.98532 18.3893 3.04846C19.3101 3.53666 20.0633 4.28986 20.5515 5.21068C20.6147 5.32977 20.7853 5.32977 20.8484 5.21068C21.3366 4.28986 22.0898 3.53666 23.0107 3.04846C23.1298 2.98532 23.1298 2.81468 23.0107 2.75154C22.0898 2.26334 21.3366 1.51014 20.8484 0.589324Z" fill="#04B90B"/>
</g>
<defs>
<clipPath id="clip0_1335_4034">
<rect width="24" height="24" fill="white" transform="translate(0 0.5)"/>
</clipPath>
</defs>
</svg>
