<svg width="64" height="16" viewBox="0 0 64 16" fill="none" xmlns="http://www.w3.org/2000/svg">
<g clip-path="url(#clip0_1531_6515)">
<path d="M29.896 13.073H27.2109L28.8904 2.68848H31.5754L29.896 13.073Z" fill="#00579F"/>
<path d="M39.6307 2.94211C39.1011 2.73199 38.2611 2.5 37.2224 2.5C34.5708 2.5 32.7035 3.91399 32.6921 5.93556C32.6701 7.42707 34.029 8.25549 35.0454 8.75281C36.0842 9.26099 36.4373 9.59269 36.4373 10.0457C36.4267 10.7413 35.5979 11.062 34.8248 11.062C33.7528 11.062 33.1784 10.8967 32.3055 10.5096L31.9519 10.3437L31.5762 12.6748C32.2059 12.9617 33.3662 13.2163 34.5708 13.2275C37.3882 13.2275 39.2224 11.8354 39.2441 9.68108C39.2549 8.49894 38.5373 7.59314 36.9903 6.85296C36.0511 6.37782 35.476 6.05743 35.476 5.57127C35.487 5.12931 35.9625 4.67663 37.0226 4.67663C37.8955 4.65446 38.5369 4.86428 39.0227 5.07425L39.2656 5.18452L39.6307 2.94211Z" fill="#00579F"/>
<path d="M43.1992 9.39412C43.4203 8.79754 44.2712 6.48862 44.2712 6.48862C44.2601 6.51079 44.4919 5.88103 44.6245 5.49442L44.8122 6.38921C44.8122 6.38921 45.3206 8.87492 45.4311 9.39412H43.1992ZM46.5136 2.68848H44.4367C43.7962 2.68848 43.3096 2.87613 43.0333 3.55008L39.0449 13.0728H41.8623C41.8623 13.0728 42.3262 11.7911 42.4259 11.5151H45.8733C45.9504 11.8797 46.1937 13.0728 46.1937 13.0728H48.6798L46.5136 2.68848Z" fill="#00579F"/>
<path d="M24.9691 2.68848L22.3395 9.76971L22.0522 8.33355C21.566 6.67641 20.0413 4.87597 18.3398 3.98074L20.7485 13.062H23.5879L27.8084 2.68848H24.9691Z" fill="#00579F"/>
<path d="M19.8975 2.68848H15.5774L15.5332 2.8983C18.9031 3.76005 21.135 5.83727 22.0519 8.33399L21.1128 3.56139C20.9582 2.89815 20.483 2.71035 19.8975 2.68848Z" fill="#FAA61A"/>
</g>
<defs>
<clipPath id="clip0_1531_6515">
<rect width="33.2121" height="10.7275" fill="white" transform="translate(15.5 2.5)"/>
</clipPath>
</defs>
</svg>
